<?xml version="1.0" encoding="UTF-8"?><svg id="Layer_1" xmlns="http://www.w3.org/2000/svg" viewBox="0 0 53.69 31.87"><path d="M52.75,24.26c-.39-.13-.63-.2-.87-.29-2.68-1.08-5.36-2.16-8.05-3.24-1.06-.43-1.41-.26-1.56.86-.42,3.01-.82,6.02-1.22,9.03-.11.8-.48,1.24-1.08,1.25-.57,0-.97-.38-1.08-1.15-.38-2.69-.73-5.37-1.1-8.06-.06-.42-.1-.84-.15-1.25-.11-.78-.6-1.07-1.35-.77-2.71,1.09-5.41,2.17-8.11,3.28-.92.38-1.79.36-2.71-.02-2.67-1.1-5.36-2.17-8.04-3.25-.77-.31-1.26-.04-1.38.81-.31,2.25-.59,4.5-.88,6.75-.11.83-.2,1.67-.32,2.5-.11.71-.56,1.17-1.1,1.17-.56,0-1.03-.53-1.12-1.24-.38-2.99-.77-5.98-1.15-8.97-.14-1.09-.67-1.36-1.62-.95-2.64,1.13-5.31,2.16-7.97,3.23-.6.24-1.23.49-1.73-.14-.35-.44-.02-1.14.69-1.7,2.32-1.82,4.63-3.64,6.94-5.47.72-.57.71-1.06,0-1.64-2.36-1.88-4.73-3.75-7.09-5.62-.09-.07-.22-.14-.27-.21-.27-.35-.4-.98-.28-1.29.23-.38.88-.34,1.21-.23,1.78.64,3.52,1.37,5.28,2.07,1.17.47,2.33.94,3.51,1.4.81.32,1.25.06,1.37-.8.43-3.03.85-6.06,1.28-9.1.02-.16.03-.36.13-.47.25-.28.57-.73.82-.71.32.03.77.42.85.74.24.92.32,1.89.46,2.83.32,2.22.62,4.44.96,6.66.15.97.53,1.16,1.47.79,2.69-1.07,5.38-2.13,8.06-3.23.93-.38,1.8-.37,2.71,0,2.63,1.07,5.27,2.12,7.91,3.19,1.08.43,1.5.18,1.66-.97.41-2.99.85-5.97,1.26-8.96.08-.58.27-1.12.93-1.1.64.02.85.57.93,1.14.42,3.06.85,6.11,1.28,9.16.12.83.6,1.12,1.39.81,2.75-1.09,5.5-2.2,8.25-3.31.06-.03.12-.06.19-.09.57-.21,1.15-.39,1.57.24.28.41.01.96-.63,1.46-2.3,1.8-4.6,3.61-6.89,5.43-.95.75-.93,1.14.03,1.9,2.24,1.77,4.48,3.54,6.71,5.31.24.19.52.38.63.64.13.31.23.75.1,1.02-.13.27-.55.39-.79.54ZM26.85,21.99c.35-.17.7-.29.98-.5,2.12-1.61,4.23-3.24,6.34-4.88.6-.47.6-1.01-.03-1.5-2.09-1.66-4.17-3.32-6.27-4.97-.77-.61-1.28-.6-2.07.03-2,1.58-4,3.16-6,4.75-1,.8-1,1.16,0,1.94,2.02,1.56,4.03,3.12,6.06,4.67.26.2.61.3.98.47Z" stroke-width="0"/></svg>