<?xml version="1.0" encoding="UTF-8"?><svg id="Layer_1" xmlns="http://www.w3.org/2000/svg" viewBox="0 0 734.79 288.07"><path d="M0,0v288.07h66.8V0H0ZM103.33,0v288.07h63.67V127.34l30.27,160.74h42.79l27.14-160.74v160.74h60.54V0h-93.94l-16.7,137.77L194.14,0h-90.81ZM364.26,0v283.9h80.37c43.45,0,59.75-6.65,73.06-16.7,13.31-6.65,19.83-22.96,19.83-39.66V54.27c0-20.09-6.52-37.18-19.83-43.84-16.7-6.65-22.96-10.44-73.06-10.44h-80.37ZM570.93,4.17v283.9h60.54s2.87-20.09,6.26-16.7c6.65,0,33.66,12.52,46.97,12.52,16.7,0,23.35.26,33.4-3.13,13.31-6.65,16.7-16.05,16.7-26.09V87.67c0-23.35-23.75-40.71-43.84-40.71s-39.27,13.18-45.92,19.83V4.17h-74.11ZM434.2,43.84c13.31,0,27.14.26,27.14,13.57v167c0,13.31-17.09,13.57-27.14,13.57V43.84ZM654.42,77.24c3.39,0,7.31,3.52,7.31,13.57v142.99c0,6.65-.65,13.57-7.31,13.57-3.39,0-6.26-3.52-6.26-13.57V90.81c0-6.65-.39-13.57,6.26-13.57Z" stroke-width="0"/></svg>