<?xml version="1.0" encoding="UTF-8"?><svg id="Layer_1" xmlns="http://www.w3.org/2000/svg" viewBox="0 0 65.25 27"><path d="M23.06,23.05c-5.81,5.61-14.37,4.96-19.31-.21-4.93-5.15-5-13.29-.18-18.49,4.93-5.33,13.62-6.08,19.5-.41C25.72,1.4,28.89,0,32.59,0c3.71,0,6.89,1.36,9.58,3.94C45.24,1.05,48.83-.32,53.01.06c3.62.33,6.63,1.92,9,4.67,4.58,5.33,4.26,13.27-.68,18.27-4.96,5.02-13.41,5.59-19.16.06-2.66,2.55-5.82,3.93-9.53,3.94-3.71,0-6.89-1.36-9.59-3.94ZM21.53,5.7c-3.65-4.05-10.91-5.03-15.85-.3-4.73,4.52-4.58,12.15.33,16.5,5.11,4.53,12.19,3.18,15.5-.62-3.22-5.18-3.24-10.35,0-15.58ZM43.64,21.32c2.9,2.79,6.26,3.93,10.15,3.24,4.65-.83,8.3-4.57,9.05-9.14.79-4.8-1.49-9.51-5.7-11.79-4.21-2.29-9.31-1.69-12.9,1.48-.47.41-.56.68-.2,1.25,1.87,2.98,2.47,6.22,1.82,9.69-.35,1.89-1.12,3.61-2.23,5.27ZM40.65,21.29c-3.24-5.2-3.24-10.4.01-15.58-4.52-4.91-12.42-4.29-16.07.04,3.25,5.2,3.21,10.4-.02,15.57,4.6,4.85,12.25,4.3,16.08-.02ZM23.03,19.31c2.24-2.77,2.23-9.06.02-11.58-2.08,2.92-2.36,7.99-.02,11.58ZM42.18,19.32c2.37-3.41,2.13-8.81-.02-11.59-2.18,2.89-2.19,8.48.02,11.59Z" stroke-width="0"/></svg>