<?xml version="1.0" encoding="UTF-8"?><svg id="Layer_1" xmlns="http://www.w3.org/2000/svg" viewBox="0 0 72 72.02"><path d="M33.89,0c1.41,0,2.81,0,4.22,0,.18.04.36.1.54.12,5.63.4,10.9,2.01,15.71,4.95,9.33,5.72,15.07,13.96,17.08,24.74.25,1.35.38,2.72.56,4.08v4.22c-.04.25-.09.5-.13.75-.23,1.55-.35,3.12-.69,4.65-1.89,8.67-6.35,15.77-13.42,21.11-8.73,6.59-18.56,8.78-29.26,6.57-8.69-1.8-15.75-6.35-21.12-13.4C1.65,50.27-.73,41.72.19,32.33c.75-7.61,3.71-14.32,8.78-20.06C14.55,5.97,21.49,2.04,29.79.56c1.35-.24,2.73-.38,4.09-.56ZM36.01,5.78c-16.62-.01-30.25,13.61-30.24,30.23,0,16.61,13.56,30.18,30.18,30.22,16.61.04,30.25-13.56,30.27-30.2.03-16.62-13.59-30.25-30.22-30.26Z" stroke-width="0"/><path d="M29.25,20.8c7.46.05,13.66.56,19.7,2.28,2.11.6,4.16,1.41,6.2,2.22,1.54.61,2.2,2.26,1.61,3.71-.61,1.49-2.23,2.24-3.77,1.6-2.73-1.13-5.52-2.07-8.41-2.67-4.61-.95-9.27-1.4-13.96-1.3-3.69.07-7.38.42-11.08.63-.56.03-1.14.07-1.67-.06-1.27-.32-2.12-1.56-2.06-2.85.06-1.32.95-2.46,2.27-2.68,1.48-.25,2.97-.43,4.46-.53,2.64-.18,5.29-.27,6.72-.35Z" stroke-width="0"/><path d="M28.96,32.09c8.19.07,14.71.7,21,2.9,1.01.36,2.02.75,3,1.19,1.47.66,2.12,2.27,1.54,3.69-.6,1.47-2.14,2.16-3.7,1.64-2.31-.76-4.58-1.66-6.93-2.24-4.31-1.07-8.74-1.43-13.17-1.33-3.32.08-6.64.35-9.95.58-1.99.14-3.37-.73-3.62-2.38-.26-1.75.88-3.2,2.76-3.36,3.54-.3,7.09-.55,9.07-.69Z" stroke-width="0"/><path d="M29.86,43.15c5.84-.12,11.59.48,17.14,2.41.88.31,1.76.65,2.6,1.05,1.46.67,2.09,2.28,1.51,3.7-.6,1.45-2.2,2.21-3.71,1.59-2.76-1.13-5.6-1.98-8.55-2.44-4.14-.65-8.3-.79-12.47-.56-1.92.11-3.82.36-5.74.46-1.46.08-2.63-.99-2.88-2.46-.22-1.29.6-2.69,1.88-3.1.55-.18,1.14-.25,1.72-.31,1.42-.13,2.85-.27,4.27-.32,1.4-.05,2.81-.01,4.21-.01Z" stroke-width="0"/></svg>